<?xml version="1.0" encoding="us-ascii" standalone="no"?><svg xmlns="http://www.w3.org/2000/svg" xmlns:xlink="http://www.w3.org/1999/xlink" contentStyleType="text/css" height="388px" preserveAspectRatio="none" style="width:444px;height:388px;background:#FFFFFF;" version="1.1" viewBox="0 0 444 388" width="444px" zoomAndPan="magnify"><defs/><g><rect fill="none" height="75.3984" style="stroke:#000000;stroke-width:1.5;" width="428.5" x="10" y="214.8281"/><line style="stroke:#181818;stroke-width:0.5;stroke-dasharray:5.0,5.0;" x1="42" x2="42" y1="81.2969" y2="307.2266"/><line style="stroke:#181818;stroke-width:0.5;stroke-dasharray:5.0,5.0;" x1="178.5" x2="178.5" y1="81.2969" y2="307.2266"/><line style="stroke:#181818;stroke-width:0.5;stroke-dasharray:5.0,5.0;" x1="374.5" x2="374.5" y1="81.2969" y2="307.2266"/><text fill="#000000" font-family="sans-serif" font-size="14" lengthAdjust="spacing" textLength="39" x="20" y="77.9951">Client</text><ellipse cx="42.5" cy="13.5" fill="#E2E2F0" rx="8" ry="8" style="stroke:#181818;stroke-width:0.5;"/><path d="M42.5,21.5 L42.5,48.5 M29.5,29.5 L55.5,29.5 M42.5,48.5 L29.5,63.5 M42.5,48.5 L55.5,63.5 " fill="none" style="stroke:#181818;stroke-width:0.5;"/><text fill="#000000" font-family="sans-serif" font-size="14" lengthAdjust="spacing" textLength="39" x="20" y="319.2217">Client</text><ellipse cx="42.5" cy="331.0234" fill="#E2E2F0" rx="8" ry="8" style="stroke:#181818;stroke-width:0.5;"/><path d="M42.5,339.0234 L42.5,366.0234 M29.5,347.0234 L55.5,347.0234 M42.5,366.0234 L29.5,381.0234 M42.5,366.0234 L55.5,381.0234 " fill="none" style="stroke:#181818;stroke-width:0.5;"/><rect fill="#E2E2F0" height="30.2969" rx="2.5" ry="2.5" style="stroke:#181818;stroke-width:0.5;" width="80" x="138.5" y="50"/><text fill="#000000" font-family="sans-serif" font-size="14" lengthAdjust="spacing" textLength="66" x="145.5" y="69.9951">Back-end</text><rect fill="#E2E2F0" height="30.2969" rx="2.5" ry="2.5" style="stroke:#181818;stroke-width:0.5;" width="80" x="138.5" y="306.2266"/><text fill="#000000" font-family="sans-serif" font-size="14" lengthAdjust="spacing" textLength="66" x="145.5" y="326.2217">Back-end</text><text fill="#000000" font-family="sans-serif" font-size="14" lengthAdjust="spacing" textLength="102" x="320.5" y="77.9951">Object storage</text><path d="M356.5,29 C356.5,19 374.5,19 374.5,19 C374.5,19 392.5,19 392.5,29 L392.5,55 C392.5,65 374.5,65 374.5,65 C374.5,65 356.5,65 356.5,55 L356.5,29 " fill="#E2E2F0" style="stroke:#181818;stroke-width:1.5;"/><path d="M356.5,29 C356.5,39 374.5,39 374.5,39 C374.5,39 392.5,39 392.5,29 " fill="none" style="stroke:#181818;stroke-width:1.5;"/><text fill="#000000" font-family="sans-serif" font-size="14" lengthAdjust="spacing" textLength="102" x="320.5" y="319.2217">Object storage</text><path d="M356.5,332.5234 C356.5,322.5234 374.5,322.5234 374.5,322.5234 C374.5,322.5234 392.5,322.5234 392.5,332.5234 L392.5,358.5234 C392.5,368.5234 374.5,368.5234 374.5,368.5234 C374.5,368.5234 356.5,368.5234 356.5,358.5234 L356.5,332.5234 " fill="#E2E2F0" style="stroke:#181818;stroke-width:1.5;"/><path d="M356.5,332.5234 C356.5,342.5234 374.5,342.5234 374.5,342.5234 C374.5,342.5234 392.5,342.5234 392.5,332.5234 " fill="none" style="stroke:#181818;stroke-width:1.5;"/><polygon fill="#181818" points="166.5,108.4297,176.5,112.4297,166.5,116.4297,170.5,112.4297" style="stroke:#181818;stroke-width:1.0;"/><line style="stroke:#181818;stroke-width:1.0;" x1="42.5" x2="172.5" y1="112.4297" y2="112.4297"/><text fill="#000000" font-family="monospace" font-size="13" lengthAdjust="spacing" textLength="112" x="49.5" y="107.3638">GET&#160;/page.html</text><polygon fill="#181818" points="362.5,137.5625,372.5,141.5625,362.5,145.5625,366.5,141.5625" style="stroke:#181818;stroke-width:1.0;"/><line style="stroke:#181818;stroke-width:1.0;" x1="178.5" x2="368.5" y1="141.5625" y2="141.5625"/><text fill="#000000" font-family="monospace" font-size="13" lengthAdjust="spacing" textLength="112" x="185.5" y="136.4966">GET&#160;/page.html</text><text fill="#000000" font-family="sans-serif" font-size="13" lengthAdjust="spacing" textLength="39" x="301.5" y="136.4966">object</text><polygon fill="#FF0000" points="189.5,166.6953,179.5,170.6953,189.5,174.6953,185.5,170.6953" style="stroke:#FF0000;stroke-width:1.0;"/><line style="stroke:#FF0000;stroke-width:1.0;stroke-dasharray:2.0,2.0;" x1="183.5" x2="373.5" y1="170.6953" y2="170.6953"/><text fill="#000000" font-family="monospace" font-size="13" lengthAdjust="spacing" textLength="104" x="195.5" y="165.6294">404&#160;Not&#160;Found</text><polygon fill="#181818" points="362.5,195.8281,372.5,199.8281,362.5,203.8281,366.5,199.8281" style="stroke:#181818;stroke-width:1.0;"/><line style="stroke:#181818;stroke-width:1.0;" x1="178.5" x2="368.5" y1="199.8281" y2="199.8281"/><text fill="#000000" font-family="sans-serif" font-size="13" lengthAdjust="spacing" textLength="22" x="185.5" y="194.7622">List</text><text fill="#000000" font-family="monospace" font-size="13" lengthAdjust="spacing" textLength="96" x="211.5" y="194.7622">/page.html@*</text><text fill="#000000" font-family="sans-serif" font-size="13" lengthAdjust="spacing" textLength="46" x="311.5" y="194.7622">objects</text><path d="M10,214.8281 L74,214.8281 L74,221.9609 L64,231.9609 L10,231.9609 L10,214.8281 " fill="#EEEEEE" style="stroke:#000000;stroke-width:1.5;"/><rect fill="none" height="75.3984" style="stroke:#000000;stroke-width:1.5;" width="428.5" x="10" y="214.8281"/><text fill="#000000" font-family="sans-serif" font-size="13" font-weight="bold" lengthAdjust="spacing" textLength="19" x="25" y="227.895">alt</text><text fill="#000000" font-family="sans-serif" font-size="11" font-weight="bold" lengthAdjust="spacing" textLength="194" x="89" y="227.0386">[Private object does not exist]</text><polygon fill="#008000" points="189.5,249.0938,179.5,253.0938,189.5,257.0938,185.5,253.0938" style="stroke:#008000;stroke-width:1.0;"/><line style="stroke:#008000;stroke-width:1.0;stroke-dasharray:2.0,2.0;" x1="183.5" x2="373.5" y1="253.0938" y2="253.0938"/><text fill="#000000" font-family="monospace" font-size="13" lengthAdjust="spacing" textLength="16" x="195.5" y="248.0278">[]</text><polygon fill="#FF0000" points="53.5,278.2266,43.5,282.2266,53.5,286.2266,49.5,282.2266" style="stroke:#FF0000;stroke-width:1.0;"/><line style="stroke:#FF0000;stroke-width:1.0;stroke-dasharray:2.0,2.0;" x1="47.5" x2="177.5" y1="282.2266" y2="282.2266"/><text fill="#000000" font-family="monospace" font-size="13" lengthAdjust="spacing" textLength="104" x="59.5" y="277.1606">404&#160;Not&#160;Found</text><!--SRC=[RP1DIyD048RFdLynha91Y0hjIL2qebxyWlHMUfWaGrsRx8QTYVNdEqcaLF6sy_MyxxjJbAqFBILgCB6qCGW_imXjUC5rtDsc57UegMEO8dKQGzSKd02er9ZmhlOS5EnUVUbR2efkGUKsur0v9C6-W8gK2X96zrfySAaeTciAmqO-0pWwQQt4AtJd_UFiNPlQ0OnqpAu7p2KwztY_n67NEUXx_IoV_PbW75G0yXbcg-F4rVe0CR-OuqjKV8YTUVoDUV9Y0Tp0kJdTayJYrefloN-IyayJgyY2mKZyPMSm6TKsYJaSwgtM9Z8PLVPcncJ_sR6FWsy0]--></g></svg>