<?xml version="1.0" encoding="us-ascii" standalone="no"?><svg xmlns="http://www.w3.org/2000/svg" xmlns:xlink="http://www.w3.org/1999/xlink" contentStyleType="text/css" height="1530px" preserveAspectRatio="none" style="width:702px;height:1530px;background:#FFFFFF;" version="1.1" viewBox="0 0 702 1530" width="702px" zoomAndPan="magnify"><defs/><g><rect fill="none" height="1276.5469" style="stroke:#000000;stroke-width:1.5;" width="685.5" x="10" y="156.5625"/><rect fill="none" height="1114.0781" style="stroke:#000000;stroke-width:1.5;" width="665.5" x="20" y="312.0313"/><rect fill="none" height="379.0703" style="stroke:#000000;stroke-width:1.5;" width="504.5" x="30" y="422.5625"/><rect fill="none" height="248.8672" style="stroke:#000000;stroke-width:1.5;" width="484.5" x="40" y="475.8281"/><rect fill="none" height="182.6016" style="stroke:#000000;stroke-width:1.5;" width="428" x="50" y="535.0938"/><rect fill="none" height="488.2734" style="stroke:#000000;stroke-width:1.5;" width="645.5" x="30" y="857.7656"/><rect fill="none" height="371.0703" style="stroke:#000000;stroke-width:1.5;" width="625.5" x="40" y="924.0313"/><rect fill="none" height="190.6016" style="stroke:#000000;stroke-width:1.5;" width="605.5" x="50" y="1032.4297"/><line style="stroke:#181818;stroke-width:0.5;stroke-dasharray:5.0,5.0;" x1="82" x2="82" y1="81.2969" y2="760.8281"/><line style="stroke:#A80036;stroke-width:1.0;stroke-dasharray:1.0,4.0;" x1="82" x2="82" y1="760.8281" y2="801.6328"/><line style="stroke:#181818;stroke-width:0.5;stroke-dasharray:5.0,5.0;" x1="82" x2="82" y1="801.6328" y2="1450.1094"/><line style="stroke:#181818;stroke-width:0.5;stroke-dasharray:5.0,5.0;" x1="306.5" x2="306.5" y1="81.2969" y2="760.8281"/><line style="stroke:#A80036;stroke-width:1.0;stroke-dasharray:1.0,4.0;" x1="306.5" x2="306.5" y1="760.8281" y2="801.6328"/><line style="stroke:#181818;stroke-width:0.5;stroke-dasharray:5.0,5.0;" x1="306.5" x2="306.5" y1="801.6328" y2="1450.1094"/><line style="stroke:#181818;stroke-width:0.5;stroke-dasharray:5.0,5.0;" x1="591.5" x2="591.5" y1="81.2969" y2="760.8281"/><line style="stroke:#A80036;stroke-width:1.0;stroke-dasharray:1.0,4.0;" x1="591.5" x2="591.5" y1="760.8281" y2="801.6328"/><line style="stroke:#181818;stroke-width:0.5;stroke-dasharray:5.0,5.0;" x1="591.5" x2="591.5" y1="801.6328" y2="1450.1094"/><text fill="#000000" font-family="sans-serif" font-size="14" lengthAdjust="spacing" textLength="39" x="60" y="77.9951">Client</text><ellipse cx="82.5" cy="13.5" fill="#E2E2F0" rx="8" ry="8" style="stroke:#181818;stroke-width:0.5;"/><path d="M82.5,21.5 L82.5,48.5 M69.5,29.5 L95.5,29.5 M82.5,48.5 L69.5,63.5 M82.5,48.5 L95.5,63.5 " fill="none" style="stroke:#181818;stroke-width:0.5;"/><text fill="#000000" font-family="sans-serif" font-size="14" lengthAdjust="spacing" textLength="39" x="60" y="1462.1045">Client</text><ellipse cx="82.5" cy="1473.9063" fill="#E2E2F0" rx="8" ry="8" style="stroke:#181818;stroke-width:0.5;"/><path d="M82.5,1481.9063 L82.5,1508.9063 M69.5,1489.9063 L95.5,1489.9063 M82.5,1508.9063 L69.5,1523.9063 M82.5,1508.9063 L95.5,1523.9063 " fill="none" style="stroke:#181818;stroke-width:0.5;"/><rect fill="#E2E2F0" height="30.2969" rx="2.5" ry="2.5" style="stroke:#181818;stroke-width:0.5;" width="80" x="266.5" y="50"/><text fill="#000000" font-family="sans-serif" font-size="14" lengthAdjust="spacing" textLength="66" x="273.5" y="69.9951">Back-end</text><rect fill="#E2E2F0" height="30.2969" rx="2.5" ry="2.5" style="stroke:#181818;stroke-width:0.5;" width="80" x="266.5" y="1449.1094"/><text fill="#000000" font-family="sans-serif" font-size="14" lengthAdjust="spacing" textLength="66" x="273.5" y="1469.1045">Back-end</text><text fill="#000000" font-family="sans-serif" font-size="14" lengthAdjust="spacing" textLength="102" x="537.5" y="77.9951">Object storage</text><path d="M573.5,29 C573.5,19 591.5,19 591.5,19 C591.5,19 609.5,19 609.5,29 L609.5,55 C609.5,65 591.5,65 591.5,65 C591.5,65 573.5,65 573.5,55 L573.5,29 " fill="#E2E2F0" style="stroke:#181818;stroke-width:1.5;"/><path d="M573.5,29 C573.5,39 591.5,39 591.5,39 C591.5,39 609.5,39 609.5,29 " fill="none" style="stroke:#181818;stroke-width:1.5;"/><text fill="#000000" font-family="sans-serif" font-size="14" lengthAdjust="spacing" textLength="102" x="537.5" y="1462.1045">Object storage</text><path d="M573.5,1475.4063 C573.5,1465.4063 591.5,1465.4063 591.5,1465.4063 C591.5,1465.4063 609.5,1465.4063 609.5,1475.4063 L609.5,1501.4063 C609.5,1511.4063 591.5,1511.4063 591.5,1511.4063 C591.5,1511.4063 573.5,1511.4063 573.5,1501.4063 L573.5,1475.4063 " fill="#E2E2F0" style="stroke:#181818;stroke-width:1.5;"/><path d="M573.5,1475.4063 C573.5,1485.4063 591.5,1485.4063 591.5,1485.4063 C591.5,1485.4063 609.5,1485.4063 609.5,1475.4063 " fill="none" style="stroke:#181818;stroke-width:1.5;"/><polygon fill="#181818" points="294.5,108.4297,304.5,112.4297,294.5,116.4297,298.5,112.4297" style="stroke:#181818;stroke-width:1.0;"/><line style="stroke:#181818;stroke-width:1.0;" x1="82.5" x2="300.5" y1="112.4297" y2="112.4297"/><text fill="#000000" font-family="monospace" font-size="13" lengthAdjust="spacing" textLength="112" x="89.5" y="107.3638">GET&#160;/page.html</text><polygon fill="#181818" points="579.5,137.5625,589.5,141.5625,579.5,145.5625,583.5,141.5625" style="stroke:#181818;stroke-width:1.0;"/><line style="stroke:#181818;stroke-width:1.0;" x1="306.5" x2="585.5" y1="141.5625" y2="141.5625"/><text fill="#000000" font-family="monospace" font-size="13" lengthAdjust="spacing" textLength="112" x="313.5" y="136.4966">GET&#160;/page.html</text><text fill="#000000" font-family="sans-serif" font-size="13" lengthAdjust="spacing" textLength="39" x="429.5" y="136.4966">object</text><path d="M10,156.5625 L74,156.5625 L74,163.6953 L64,173.6953 L10,173.6953 L10,156.5625 " fill="#EEEEEE" style="stroke:#000000;stroke-width:1.5;"/><rect fill="none" height="1276.5469" style="stroke:#000000;stroke-width:1.5;" width="685.5" x="10" y="156.5625"/><text fill="#000000" font-family="sans-serif" font-size="13" font-weight="bold" lengthAdjust="spacing" textLength="19" x="25" y="169.6294">alt</text><text fill="#000000" font-family="sans-serif" font-size="11" font-weight="bold" lengthAdjust="spacing" textLength="135" x="89" y="168.7729">[Public object exists]</text><polygon fill="#008000" points="317.5,190.8281,307.5,194.8281,317.5,198.8281,313.5,194.8281" style="stroke:#008000;stroke-width:1.0;"/><line style="stroke:#008000;stroke-width:1.0;stroke-dasharray:2.0,2.0;" x1="311.5" x2="590.5" y1="194.8281" y2="194.8281"/><text fill="#000000" font-family="monospace" font-size="13" lengthAdjust="spacing" textLength="80" x="323.5" y="189.7622">/page.html</text><polygon fill="#008000" points="93.5,219.9609,83.5,223.9609,93.5,227.9609,89.5,223.9609" style="stroke:#008000;stroke-width:1.0;"/><line style="stroke:#008000;stroke-width:1.0;stroke-dasharray:2.0,2.0;" x1="87.5" x2="305.5" y1="223.9609" y2="223.9609"/><text fill="#000000" font-family="monospace" font-size="13" lengthAdjust="spacing" textLength="80" x="99.5" y="218.895">/page.html</text><line style="stroke:#000000;stroke-width:1.0;stroke-dasharray:2.0,2.0;" x1="10" x2="695.5" y1="232.9609" y2="232.9609"/><text fill="#000000" font-family="sans-serif" font-size="11" font-weight="bold" lengthAdjust="spacing" textLength="188" x="15" y="243.1714">[Public object does not exist]</text><polygon fill="#FF0000" points="317.5,263.8984,307.5,267.8984,317.5,271.8984,313.5,267.8984" style="stroke:#FF0000;stroke-width:1.0;"/><line style="stroke:#FF0000;stroke-width:1.0;stroke-dasharray:2.0,2.0;" x1="311.5" x2="590.5" y1="267.8984" y2="267.8984"/><text fill="#000000" font-family="monospace" font-size="13" lengthAdjust="spacing" textLength="104" x="323.5" y="262.8325">404&#160;Not&#160;Found</text><polygon fill="#181818" points="579.5,293.0313,589.5,297.0313,579.5,301.0313,583.5,297.0313" style="stroke:#181818;stroke-width:1.0;"/><line style="stroke:#181818;stroke-width:1.0;" x1="306.5" x2="585.5" y1="297.0313" y2="297.0313"/><text fill="#000000" font-family="sans-serif" font-size="13" lengthAdjust="spacing" textLength="22" x="313.5" y="291.9653">List</text><text fill="#000000" font-family="monospace" font-size="13" lengthAdjust="spacing" textLength="96" x="339.5" y="291.9653">/page.html@*</text><text fill="#000000" font-family="sans-serif" font-size="13" lengthAdjust="spacing" textLength="46" x="439.5" y="291.9653">objects</text><path d="M20,312.0313 L84,312.0313 L84,319.1641 L74,329.1641 L20,329.1641 L20,312.0313 " fill="#EEEEEE" style="stroke:#000000;stroke-width:1.5;"/><rect fill="none" height="1114.0781" style="stroke:#000000;stroke-width:1.5;" width="665.5" x="20" y="312.0313"/><text fill="#000000" font-family="sans-serif" font-size="13" font-weight="bold" lengthAdjust="spacing" textLength="19" x="35" y="325.0981">alt</text><text fill="#000000" font-family="sans-serif" font-size="11" font-weight="bold" lengthAdjust="spacing" textLength="151" x="99" y="324.2417">[Private object(s) exist]</text><polygon fill="#008000" points="317.5,361.4297,307.5,365.4297,317.5,369.4297,313.5,365.4297" style="stroke:#008000;stroke-width:1.0;"/><line style="stroke:#008000;stroke-width:1.0;stroke-dasharray:2.0,2.0;" x1="311.5" x2="590.5" y1="365.4297" y2="365.4297"/><text fill="#000000" font-family="monospace" font-size="13" lengthAdjust="spacing" textLength="200" x="323.5" y="345.231">["/page.html@&lt;profile1&gt;",</text><text fill="#000000" font-family="monospace" font-size="13" lengthAdjust="spacing" textLength="192" x="323.5" y="360.3638">"/page.html@&lt;profile2&gt;"]</text><line style="stroke:#181818;stroke-width:1.0;" x1="306.5" x2="348.5" y1="394.5625" y2="394.5625"/><line style="stroke:#181818;stroke-width:1.0;" x1="348.5" x2="348.5" y1="394.5625" y2="407.5625"/><line style="stroke:#181818;stroke-width:1.0;" x1="307.5" x2="348.5" y1="407.5625" y2="407.5625"/><polygon fill="#181818" points="317.5,403.5625,307.5,407.5625,317.5,411.5625,313.5,407.5625" style="stroke:#181818;stroke-width:1.0;"/><text fill="#000000" font-family="sans-serif" font-size="13" lengthAdjust="spacing" textLength="119" x="313.5" y="389.4966">Read Bearer token</text><path d="M30,422.5625 L94,422.5625 L94,429.6953 L84,439.6953 L30,439.6953 L30,422.5625 " fill="#EEEEEE" style="stroke:#000000;stroke-width:1.5;"/><rect fill="none" height="379.0703" style="stroke:#000000;stroke-width:1.5;" width="504.5" x="30" y="422.5625"/><text fill="#000000" font-family="sans-serif" font-size="13" font-weight="bold" lengthAdjust="spacing" textLength="19" x="45" y="435.6294">alt</text><text fill="#000000" font-family="sans-serif" font-size="11" font-weight="bold" lengthAdjust="spacing" textLength="164" x="109" y="434.7729">[User isn't authenticated]</text><polygon fill="#FF0000" points="93.5,456.8281,83.5,460.8281,93.5,464.8281,89.5,460.8281" style="stroke:#FF0000;stroke-width:1.0;"/><line style="stroke:#FF0000;stroke-width:1.0;stroke-dasharray:2.0,2.0;" x1="87.5" x2="305.5" y1="460.8281" y2="460.8281"/><text fill="#000000" font-family="monospace" font-size="13" lengthAdjust="spacing" textLength="128" x="99.5" y="455.7622">401&#160;Unauthorized</text><path d="M40,475.8281 L192,475.8281 L192,482.9609 L182,492.9609 L40,492.9609 L40,475.8281 " fill="#EEEEEE" style="stroke:#000000;stroke-width:1.5;"/><rect fill="none" height="248.8672" style="stroke:#000000;stroke-width:1.5;" width="484.5" x="40" y="475.8281"/><text fill="#000000" font-family="sans-serif" font-size="13" font-weight="bold" lengthAdjust="spacing" textLength="107" x="55" y="488.895">Authentication</text><polygon fill="#181818" points="294.5,513.0938,304.5,517.0938,294.5,521.0938,298.5,517.0938" style="stroke:#181818;stroke-width:1.0;"/><line style="stroke:#181818;stroke-width:1.0;" x1="82.5" x2="300.5" y1="517.0938" y2="517.0938"/><text fill="#000000" font-family="monospace" font-size="13" lengthAdjust="spacing" textLength="80" x="89.5" y="512.0278">GET&#160;/login</text><text fill="#000000" font-family="sans-serif" font-size="13" lengthAdjust="spacing" textLength="78" x="173.5" y="512.0278">(Basic Auth)</text><path d="M311,497.9609 L311,522.9609 L509,522.9609 L509,507.9609 L499,497.9609 L311,497.9609 " fill="#FEFFDD" style="stroke:#181818;stroke-width:0.5;"/><path d="M499,497.9609 L499,507.9609 L509,507.9609 L499,497.9609 " fill="#FEFFDD" style="stroke:#181818;stroke-width:0.5;"/><text fill="#000000" font-family="sans-serif" font-size="13" lengthAdjust="spacing" textLength="177" x="317" y="515.0278">Shared profile as username</text><path d="M50,535.0938 L114,535.0938 L114,542.2266 L104,552.2266 L50,552.2266 L50,535.0938 " fill="#EEEEEE" style="stroke:#000000;stroke-width:1.5;"/><rect fill="none" height="182.6016" style="stroke:#000000;stroke-width:1.5;" width="428" x="50" y="535.0938"/><text fill="#000000" font-family="sans-serif" font-size="13" font-weight="bold" lengthAdjust="spacing" textLength="19" x="65" y="548.1606">alt</text><text fill="#000000" font-family="sans-serif" font-size="11" font-weight="bold" lengthAdjust="spacing" textLength="118" x="129" y="547.3042">[Valid credentials]</text><line style="stroke:#181818;stroke-width:1.0;" x1="306.5" x2="348.5" y1="577.4258" y2="577.4258"/><line style="stroke:#181818;stroke-width:1.0;" x1="348.5" x2="348.5" y1="577.4258" y2="590.4258"/><line style="stroke:#181818;stroke-width:1.0;" x1="307.5" x2="348.5" y1="590.4258" y2="590.4258"/><polygon fill="#181818" points="317.5,586.4258,307.5,590.4258,317.5,594.4258,313.5,590.4258" style="stroke:#181818;stroke-width:1.0;"/><text fill="#000000" font-family="sans-serif" font-size="13" lengthAdjust="spacing" textLength="153" x="313.5" y="572.3599">Generate unique Biscuit</text><path d="M134,557.2266 L134,597.2266 L301,597.2266 L301,567.2266 L291,557.2266 L134,557.2266 " fill="#FEFFDD" style="stroke:#181818;stroke-width:0.5;"/><path d="M291,557.2266 L291,567.2266 L301,567.2266 L291,557.2266 " fill="#FEFFDD" style="stroke:#181818;stroke-width:0.5;"/><text fill="#000000" font-family="sans-serif" font-size="13" lengthAdjust="spacing" textLength="80" x="140" y="574.2935">With TTL and</text><text fill="#000000" font-family="sans-serif" font-size="13" lengthAdjust="spacing" textLength="146" x="140" y="589.4263">revocation mechanism</text><polygon fill="#008000" points="93.5,619.625,83.5,623.625,93.5,627.625,89.5,623.625" style="stroke:#008000;stroke-width:1.0;"/><line style="stroke:#008000;stroke-width:1.0;stroke-dasharray:2.0,2.0;" x1="87.5" x2="305.5" y1="623.625" y2="623.625"/><text fill="#000000" font-family="sans-serif" font-size="13" lengthAdjust="spacing" textLength="42" x="99.5" y="618.5591">Biscuit</text><line style="stroke:#181818;stroke-width:1.0;" x1="82.5" x2="124.5" y1="652.7578" y2="652.7578"/><line style="stroke:#181818;stroke-width:1.0;" x1="124.5" x2="124.5" y1="652.7578" y2="665.7578"/><line style="stroke:#181818;stroke-width:1.0;" x1="83.5" x2="124.5" y1="665.7578" y2="665.7578"/><polygon fill="#181818" points="93.5,661.7578,83.5,665.7578,93.5,669.7578,89.5,665.7578" style="stroke:#181818;stroke-width:1.0;"/><text fill="#000000" font-family="sans-serif" font-size="13" lengthAdjust="spacing" textLength="153" x="89.5" y="647.6919">Store Biscuit in a cookie</text><line style="stroke:#000000;stroke-width:1.0;stroke-dasharray:2.0,2.0;" x1="50" x2="478" y1="674.7578" y2="674.7578"/><text fill="#000000" font-family="sans-serif" font-size="11" font-weight="bold" lengthAdjust="spacing" textLength="129" x="55" y="684.9683">[Invalid credentials]</text><polygon fill="#FF0000" points="93.5,705.6953,83.5,709.6953,93.5,713.6953,89.5,709.6953" style="stroke:#FF0000;stroke-width:1.0;"/><line style="stroke:#FF0000;stroke-width:1.0;stroke-dasharray:2.0,2.0;" x1="87.5" x2="305.5" y1="709.6953" y2="709.6953"/><text fill="#000000" font-family="monospace" font-size="13" lengthAdjust="spacing" textLength="128" x="99.5" y="704.6294">401&#160;Unauthorized</text><polygon fill="#181818" points="294.5,748.8281,304.5,752.8281,294.5,756.8281,298.5,752.8281" style="stroke:#181818;stroke-width:1.0;"/><line style="stroke:#181818;stroke-width:1.0;" x1="82.5" x2="300.5" y1="752.8281" y2="752.8281"/><text fill="#000000" font-family="monospace" font-size="13" lengthAdjust="spacing" textLength="112" x="89.5" y="747.7622">GET&#160;/page.html</text><text fill="#000000" font-family="sans-serif" font-size="11" lengthAdjust="spacing" textLength="104" x="285" y="785.0386">Restart everything</text><line style="stroke:#181818;stroke-width:1.0;" x1="306.5" x2="348.5" y1="829.7656" y2="829.7656"/><line style="stroke:#181818;stroke-width:1.0;" x1="348.5" x2="348.5" y1="829.7656" y2="842.7656"/><line style="stroke:#181818;stroke-width:1.0;" x1="307.5" x2="348.5" y1="842.7656" y2="842.7656"/><polygon fill="#181818" points="317.5,838.7656,307.5,842.7656,317.5,846.7656,313.5,842.7656" style="stroke:#181818;stroke-width:1.0;"/><text fill="#000000" font-family="sans-serif" font-size="13" lengthAdjust="spacing" textLength="98" x="313.5" y="824.6997">Validate Biscuit</text><path d="M117,817.1328 L117,842.1328 L301,842.1328 L301,827.1328 L291,817.1328 L117,817.1328 " fill="#FEFFDD" style="stroke:#181818;stroke-width:0.5;"/><path d="M291,817.1328 L291,827.1328 L301,827.1328 L291,817.1328 " fill="#FEFFDD" style="stroke:#181818;stroke-width:0.5;"/><text fill="#000000" font-family="sans-serif" font-size="13" lengthAdjust="spacing" textLength="163" x="123" y="834.1997">Format, TTL, revocation&#8230;</text><path d="M30,857.7656 L94,857.7656 L94,864.8984 L84,874.8984 L30,874.8984 L30,857.7656 " fill="#EEEEEE" style="stroke:#000000;stroke-width:1.5;"/><rect fill="none" height="488.2734" style="stroke:#000000;stroke-width:1.5;" width="645.5" x="30" y="857.7656"/><text fill="#000000" font-family="sans-serif" font-size="13" font-weight="bold" lengthAdjust="spacing" textLength="19" x="45" y="870.8325">alt</text><text fill="#000000" font-family="sans-serif" font-size="11" font-weight="bold" lengthAdjust="spacing" textLength="104" x="109" y="869.9761">[Biscuit is valid]</text><line style="stroke:#181818;stroke-width:1.0;" x1="306.5" x2="348.5" y1="896.0313" y2="896.0313"/><line style="stroke:#181818;stroke-width:1.0;" x1="348.5" x2="348.5" y1="896.0313" y2="909.0313"/><line style="stroke:#181818;stroke-width:1.0;" x1="307.5" x2="348.5" y1="909.0313" y2="909.0313"/><polygon fill="#181818" points="317.5,905.0313,307.5,909.0313,317.5,913.0313,313.5,909.0313" style="stroke:#181818;stroke-width:1.0;"/><text fill="#000000" font-family="sans-serif" font-size="13" lengthAdjust="spacing" textLength="271" x="313.5" y="890.9653">Validate Biscuit against authorized profiles</text><path d="M40,924.0313 L104,924.0313 L104,931.1641 L94,941.1641 L40,941.1641 L40,924.0313 " fill="#EEEEEE" style="stroke:#000000;stroke-width:1.5;"/><rect fill="none" height="371.0703" style="stroke:#000000;stroke-width:1.5;" width="625.5" x="40" y="924.0313"/><text fill="#000000" font-family="sans-serif" font-size="13" font-weight="bold" lengthAdjust="spacing" textLength="19" x="55" y="937.0981">alt</text><text fill="#000000" font-family="sans-serif" font-size="11" font-weight="bold" lengthAdjust="spacing" textLength="242" x="119" y="936.2417">[Authorized profile present in Biscuit]</text><line style="stroke:#181818;stroke-width:1.0;" x1="306.5" x2="348.5" y1="962.2969" y2="962.2969"/><line style="stroke:#181818;stroke-width:1.0;" x1="348.5" x2="348.5" y1="962.2969" y2="975.2969"/><line style="stroke:#181818;stroke-width:1.0;" x1="307.5" x2="348.5" y1="975.2969" y2="975.2969"/><polygon fill="#181818" points="317.5,971.2969,307.5,975.2969,317.5,979.2969,313.5,975.2969" style="stroke:#181818;stroke-width:1.0;"/><text fill="#000000" font-family="sans-serif" font-size="13" lengthAdjust="spacing" textLength="155" x="313.5" y="957.231">Read profile from Biscuit</text><line style="stroke:#181818;stroke-width:1.0;" x1="306.5" x2="348.5" y1="1004.4297" y2="1004.4297"/><line style="stroke:#181818;stroke-width:1.0;" x1="348.5" x2="348.5" y1="1004.4297" y2="1017.4297"/><line style="stroke:#181818;stroke-width:1.0;" x1="307.5" x2="348.5" y1="1017.4297" y2="1017.4297"/><polygon fill="#181818" points="317.5,1013.4297,307.5,1017.4297,317.5,1021.4297,313.5,1017.4297" style="stroke:#181818;stroke-width:1.0;"/><text fill="#000000" font-family="sans-serif" font-size="13" lengthAdjust="spacing" textLength="248" x="313.5" y="999.3638">Read decryption key from environment</text><path d="M124,991.7969 L124,1016.7969 L301,1016.7969 L301,1001.7969 L291,991.7969 L124,991.7969 " fill="#FEFFDD" style="stroke:#181818;stroke-width:0.5;"/><path d="M291,991.7969 L291,1001.7969 L301,1001.7969 L291,991.7969 " fill="#FEFFDD" style="stroke:#181818;stroke-width:0.5;"/><text fill="#000000" font-family="sans-serif" font-size="13" lengthAdjust="spacing" textLength="156" x="130" y="1008.8638">Key associated to profile</text><path d="M50,1032.4297 L114,1032.4297 L114,1039.5625 L104,1049.5625 L50,1049.5625 L50,1032.4297 " fill="#EEEEEE" style="stroke:#000000;stroke-width:1.5;"/><rect fill="none" height="190.6016" style="stroke:#000000;stroke-width:1.5;" width="605.5" x="50" y="1032.4297"/><text fill="#000000" font-family="sans-serif" font-size="13" font-weight="bold" lengthAdjust="spacing" textLength="19" x="65" y="1045.4966">alt</text><text fill="#000000" font-family="sans-serif" font-size="11" font-weight="bold" lengthAdjust="spacing" textLength="175" x="129" y="1044.6401">[Key found in environment]</text><polygon fill="#181818" points="579.5,1066.6953,589.5,1070.6953,579.5,1074.6953,583.5,1070.6953" style="stroke:#181818;stroke-width:1.0;"/><line style="stroke:#181818;stroke-width:1.0;" x1="306.5" x2="585.5" y1="1070.6953" y2="1070.6953"/><text fill="#000000" font-family="monospace" font-size="13" lengthAdjust="spacing" textLength="192" x="313.5" y="1065.6294">GET&#160;/page.html@&lt;profile&gt;</text><polygon fill="#008000" points="317.5,1095.8281,307.5,1099.8281,317.5,1103.8281,313.5,1099.8281" style="stroke:#008000;stroke-width:1.0;"/><line style="stroke:#008000;stroke-width:1.0;stroke-dasharray:2.0,2.0;" x1="311.5" x2="590.5" y1="1099.8281" y2="1099.8281"/><text fill="#000000" font-family="monospace" font-size="13" lengthAdjust="spacing" textLength="160" x="323.5" y="1094.7622">/page.html@&lt;profile&gt;</text><line style="stroke:#181818;stroke-width:1.0;" x1="306.5" x2="348.5" y1="1128.9609" y2="1128.9609"/><line style="stroke:#181818;stroke-width:1.0;" x1="348.5" x2="348.5" y1="1128.9609" y2="1141.9609"/><line style="stroke:#181818;stroke-width:1.0;" x1="307.5" x2="348.5" y1="1141.9609" y2="1141.9609"/><polygon fill="#181818" points="317.5,1137.9609,307.5,1141.9609,317.5,1145.9609,313.5,1141.9609" style="stroke:#181818;stroke-width:1.0;"/><text fill="#000000" font-family="sans-serif" font-size="13" lengthAdjust="spacing" textLength="50" x="313.5" y="1123.895">Decrypt</text><text fill="#000000" font-family="monospace" font-size="13" lengthAdjust="spacing" textLength="160" x="367.5" y="1123.895">/page.html@&lt;profile&gt;</text><path d="M107,1116.3281 L107,1141.3281 L301,1141.3281 L301,1126.3281 L291,1116.3281 L107,1116.3281 " fill="#FEFFDD" style="stroke:#181818;stroke-width:0.5;"/><path d="M291,1116.3281 L291,1126.3281 L301,1126.3281 L291,1116.3281 " fill="#FEFFDD" style="stroke:#181818;stroke-width:0.5;"/><text fill="#000000" font-family="sans-serif" font-size="13" lengthAdjust="spacing" textLength="173" x="113" y="1133.395">We suppose this never fails</text><polygon fill="#008000" points="93.5,1167.0938,83.5,1171.0938,93.5,1175.0938,89.5,1171.0938" style="stroke:#008000;stroke-width:1.0;"/><line style="stroke:#008000;stroke-width:1.0;stroke-dasharray:2.0,2.0;" x1="87.5" x2="305.5" y1="1171.0938" y2="1171.0938"/><text fill="#000000" font-family="monospace" font-size="13" lengthAdjust="spacing" textLength="80" x="99.5" y="1166.0278">/page.html</text><line style="stroke:#000000;stroke-width:1.0;stroke-dasharray:2.0,2.0;" x1="50" x2="655.5" y1="1180.0938" y2="1180.0938"/><text fill="#000000" font-family="sans-serif" font-size="11" font-weight="bold" lengthAdjust="spacing" textLength="200" x="55" y="1190.3042">[Key not found in environment]</text><polygon fill="#FF0000" points="93.5,1211.0313,83.5,1215.0313,93.5,1219.0313,89.5,1215.0313" style="stroke:#FF0000;stroke-width:1.0;"/><line style="stroke:#FF0000;stroke-width:1.0;stroke-dasharray:2.0,2.0;" x1="87.5" x2="305.5" y1="1215.0313" y2="1215.0313"/><text fill="#000000" font-family="monospace" font-size="13" lengthAdjust="spacing" textLength="200" x="99.5" y="1209.9653">500&#160;Internal&#160;Server&#160;Error</text><line style="stroke:#000000;stroke-width:1.0;stroke-dasharray:2.0,2.0;" x1="40" x2="665.5" y1="1231.0313" y2="1231.0313"/><text fill="#000000" font-family="sans-serif" font-size="11" font-weight="bold" lengthAdjust="spacing" textLength="263" x="45" y="1241.2417">[No authorized profile present in Biscuit]</text><polygon fill="#FF0000" points="93.5,1272.5352,83.5,1276.5352,93.5,1280.5352,89.5,1276.5352" style="stroke:#FF0000;stroke-width:1.0;"/><line style="stroke:#FF0000;stroke-width:1.0;stroke-dasharray:2.0,2.0;" x1="87.5" x2="305.5" y1="1276.5352" y2="1276.5352"/><text fill="#000000" font-family="monospace" font-size="13" lengthAdjust="spacing" textLength="104" x="99.5" y="1271.4692">404&#160;Not&#160;Found</text><path d="M311,1249.8359 L311,1289.8359 L497,1289.8359 L497,1259.8359 L487,1249.8359 L311,1249.8359 " fill="#FEFFDD" style="stroke:#181818;stroke-width:0.5;"/><path d="M487,1249.8359 L487,1259.8359 L497,1259.8359 L487,1249.8359 " fill="#FEFFDD" style="stroke:#181818;stroke-width:0.5;"/><text fill="#000000" font-family="sans-serif" font-size="13" lengthAdjust="spacing" textLength="23" x="317" y="1266.9028">Not</text><text fill="#000000" font-family="monospace" font-size="13" lengthAdjust="spacing" textLength="24" x="344" y="1266.9028">401</text><text fill="#000000" font-family="sans-serif" font-size="13" lengthAdjust="spacing" textLength="68" x="372" y="1266.9028">to not leak</text><text fill="#000000" font-family="sans-serif" font-size="13" lengthAdjust="spacing" textLength="165" x="317" y="1282.0356">the existence of this page</text><line style="stroke:#000000;stroke-width:1.0;stroke-dasharray:2.0,2.0;" x1="30" x2="675.5" y1="1303.1016" y2="1303.1016"/><text fill="#000000" font-family="sans-serif" font-size="11" font-weight="bold" lengthAdjust="spacing" textLength="116" x="35" y="1313.312">[Biscuit is invalid]</text><polygon fill="#FF0000" points="93.5,1334.0391,83.5,1338.0391,93.5,1342.0391,89.5,1338.0391" style="stroke:#FF0000;stroke-width:1.0;"/><line style="stroke:#FF0000;stroke-width:1.0;stroke-dasharray:2.0,2.0;" x1="87.5" x2="305.5" y1="1338.0391" y2="1338.0391"/><text fill="#000000" font-family="monospace" font-size="13" lengthAdjust="spacing" textLength="128" x="99.5" y="1332.9731">401&#160;Unauthorized</text><line style="stroke:#000000;stroke-width:1.0;stroke-dasharray:2.0,2.0;" x1="20" x2="685.5" y1="1354.0391" y2="1354.0391"/><text fill="#000000" font-family="sans-serif" font-size="11" font-weight="bold" lengthAdjust="spacing" textLength="194" x="25" y="1364.2495">[Private object does not exist]</text><polygon fill="#008000" points="317.5,1384.9766,307.5,1388.9766,317.5,1392.9766,313.5,1388.9766" style="stroke:#008000;stroke-width:1.0;"/><line style="stroke:#008000;stroke-width:1.0;stroke-dasharray:2.0,2.0;" x1="311.5" x2="590.5" y1="1388.9766" y2="1388.9766"/><text fill="#000000" font-family="monospace" font-size="13" lengthAdjust="spacing" textLength="16" x="323.5" y="1383.9106">[]</text><polygon fill="#FF0000" points="93.5,1414.1094,83.5,1418.1094,93.5,1422.1094,89.5,1418.1094" style="stroke:#FF0000;stroke-width:1.0;"/><line style="stroke:#FF0000;stroke-width:1.0;stroke-dasharray:2.0,2.0;" x1="87.5" x2="305.5" y1="1418.1094" y2="1418.1094"/><text fill="#000000" font-family="monospace" font-size="13" lengthAdjust="spacing" textLength="104" x="99.5" y="1413.0435">404&#160;Not&#160;Found</text><!--SRC=[ZLNBSXCn43nRNp4iL2MXyd18k52G8eOaHH42XHCu93aeksDRU5TQ9Ar3EF4rV1XVmenahzSRvt7nGnfDJxTwHYlWnagNqie2BBhIQ8UVq3avn1xcvdhVMdCDtbOeLa1MtkYgk48hX4oziV0kLwYzeFDUfQgKsaFIa-bu0tMMW7J0VqGclRoI3Y7vVFK3Km-EpX92YEZl2F7aMKb_uGqaM_nZS-IBF14YPeUDlP3c5IJ9qS4fXDWa4Rp6U_sTrWwOW48rvXw-L5UvIgTBWB-Kyqw8Jdy7DiwV3YsYlcpad-NknEIDY5XBCqPWJfGMysS67MWp1QfnB6PDbDtkBfnGqA6fIAOQBL8vfeCpbBVFQpPSTE1ZrKHwdAwkkhKQwYvEvzDShqjh1Yh7xRraFKakT9AqDbxi9PVCgrFN4rDyHPb13wL52zwCKNC8rtBcQ4KvlUBP6YFIHwLKMqRRjO1JwdFvThlRSAOvtbZr6xE8s1bQKvMmFq-ZZERrpd8JRELcg8W2hFQa8_tvu5g89_KHh1gE2Aq_eg8pcF9ZjrLKifO5Xb3cy4tcAeEKmXXNvYxij1GuGesMLQ-q-baXz9HBA-LZQ03CSK1utvKVmUdfCKYTNMYB4nE9G87fI6hbYcRs9UvQI3ndFjlkKz_KwA0qI4YD6Qj89_ZnWvxSn-Xn5nAowN2F_2Nkl8Qw5oXYStEJhE8ypGB02TeRFr9w2BGiwZIBiWRjMTOvxOQOXyOMqg-pdkimr_BVdxyp_zL2E0YaXUWy105oA9LsqR2HxymUBXpdlFktzkWR7VCdpMV5Yji-2PqoEpAmfbYuq2Mn6QRsfWmM6UDDF89wegpH1G_Mbhy-KenqpgIAsuoQSGOcQZzpo83d2fVQJBNewzRGh6V0tlJsxnsGjwCNgRsFhEuERxOCWglAqf1roIyqFDawC92gxTlx9d7jVcRFu_T11PRqmSjkbxh7ytp8eO-MwpYWvy_M2DDM24WdPec57h39qkPhFGMj2SPxeKLfrD5rCxSSvVX2qvoCanzrIg_18Ah7WeX6suPI6ssYTBjH7ZsXOyRuvYsyGRSVlJjVeil0yD5YY0ZA7_y1]--></g></svg>