<?xml version="1.0" encoding="us-ascii" standalone="no"?><svg xmlns="http://www.w3.org/2000/svg" xmlns:xlink="http://www.w3.org/1999/xlink" contentStyleType="text/css" height="1098px" preserveAspectRatio="none" style="width:681px;height:1098px;background:#FFFFFF;" version="1.1" viewBox="0 0 681 1098" width="681px" zoomAndPan="magnify"><defs/><g><rect fill="none" height="204.9297" style="stroke:#000000;stroke-width:1.5;" width="473.5" x="40" y="98.2969"/><rect fill="none" height="138.6641" style="stroke:#000000;stroke-width:1.5;" width="444" x="50" y="157.5625"/><rect fill="none" height="584.3906" style="stroke:#000000;stroke-width:1.5;" width="665.5" x="10" y="416.2969"/><rect fill="none" height="494.9922" style="stroke:#000000;stroke-width:1.5;" width="645.5" x="20" y="498.6953"/><rect fill="none" height="335.3281" style="stroke:#000000;stroke-width:1.5;" width="625.5" x="30" y="651.3594"/><rect fill="none" height="262.0625" style="stroke:#000000;stroke-width:1.5;" width="605.5" x="40" y="717.625"/><rect fill="none" height="146.6641" style="stroke:#000000;stroke-width:1.5;" width="585.5" x="50" y="826.0234"/><line style="stroke:#181818;stroke-width:0.5;stroke-dasharray:5.0,5.0;" x1="82" x2="82" y1="81.2969" y2="310.2266"/><line style="stroke:#A80036;stroke-width:1.0;stroke-dasharray:1.0,4.0;" x1="82" x2="82" y1="310.2266" y2="351.0313"/><line style="stroke:#181818;stroke-width:0.5;stroke-dasharray:5.0,5.0;" x1="82" x2="82" y1="351.0313" y2="1017.6875"/><line style="stroke:#181818;stroke-width:0.5;stroke-dasharray:5.0,5.0;" x1="295.5" x2="295.5" y1="81.2969" y2="310.2266"/><line style="stroke:#A80036;stroke-width:1.0;stroke-dasharray:1.0,4.0;" x1="295.5" x2="295.5" y1="310.2266" y2="351.0313"/><line style="stroke:#181818;stroke-width:0.5;stroke-dasharray:5.0,5.0;" x1="295.5" x2="295.5" y1="351.0313" y2="1017.6875"/><line style="stroke:#181818;stroke-width:0.5;stroke-dasharray:5.0,5.0;" x1="607.5" x2="607.5" y1="81.2969" y2="310.2266"/><line style="stroke:#A80036;stroke-width:1.0;stroke-dasharray:1.0,4.0;" x1="607.5" x2="607.5" y1="310.2266" y2="351.0313"/><line style="stroke:#181818;stroke-width:0.5;stroke-dasharray:5.0,5.0;" x1="607.5" x2="607.5" y1="351.0313" y2="1017.6875"/><text fill="#000000" font-family="sans-serif" font-size="14" lengthAdjust="spacing" textLength="39" x="60" y="77.9951">Client</text><ellipse cx="82.5" cy="13.5" fill="#E2E2F0" rx="8" ry="8" style="stroke:#181818;stroke-width:0.5;"/><path d="M82.5,21.5 L82.5,48.5 M69.5,29.5 L95.5,29.5 M82.5,48.5 L69.5,63.5 M82.5,48.5 L95.5,63.5 " fill="none" style="stroke:#181818;stroke-width:0.5;"/><text fill="#000000" font-family="sans-serif" font-size="14" lengthAdjust="spacing" textLength="39" x="60" y="1029.6826">Client</text><ellipse cx="82.5" cy="1041.4844" fill="#E2E2F0" rx="8" ry="8" style="stroke:#181818;stroke-width:0.5;"/><path d="M82.5,1049.4844 L82.5,1076.4844 M69.5,1057.4844 L95.5,1057.4844 M82.5,1076.4844 L69.5,1091.4844 M82.5,1076.4844 L95.5,1091.4844 " fill="none" style="stroke:#181818;stroke-width:0.5;"/><rect fill="#E2E2F0" height="30.2969" rx="2.5" ry="2.5" style="stroke:#181818;stroke-width:0.5;" width="80" x="255.5" y="50"/><text fill="#000000" font-family="sans-serif" font-size="14" lengthAdjust="spacing" textLength="66" x="262.5" y="69.9951">Back-end</text><rect fill="#E2E2F0" height="30.2969" rx="2.5" ry="2.5" style="stroke:#181818;stroke-width:0.5;" width="80" x="255.5" y="1016.6875"/><text fill="#000000" font-family="sans-serif" font-size="14" lengthAdjust="spacing" textLength="66" x="262.5" y="1036.6826">Back-end</text><text fill="#000000" font-family="sans-serif" font-size="14" lengthAdjust="spacing" textLength="18" x="595.5" y="77.9951">S3</text><path d="M589.5,29 C589.5,19 607.5,19 607.5,19 C607.5,19 625.5,19 625.5,29 L625.5,55 C625.5,65 607.5,65 607.5,65 C607.5,65 589.5,65 589.5,55 L589.5,29 " fill="#E2E2F0" style="stroke:#181818;stroke-width:1.5;"/><path d="M589.5,29 C589.5,39 607.5,39 607.5,39 C607.5,39 625.5,39 625.5,29 " fill="none" style="stroke:#181818;stroke-width:1.5;"/><text fill="#000000" font-family="sans-serif" font-size="14" lengthAdjust="spacing" textLength="18" x="595.5" y="1029.6826">S3</text><path d="M589.5,1042.9844 C589.5,1032.9844 607.5,1032.9844 607.5,1032.9844 C607.5,1032.9844 625.5,1032.9844 625.5,1042.9844 L625.5,1068.9844 C625.5,1078.9844 607.5,1078.9844 607.5,1078.9844 C607.5,1078.9844 589.5,1078.9844 589.5,1068.9844 L589.5,1042.9844 " fill="#E2E2F0" style="stroke:#181818;stroke-width:1.5;"/><path d="M589.5,1042.9844 C589.5,1052.9844 607.5,1052.9844 607.5,1052.9844 C607.5,1052.9844 625.5,1052.9844 625.5,1042.9844 " fill="none" style="stroke:#181818;stroke-width:1.5;"/><path d="M40,98.2969 L192,98.2969 L192,105.4297 L182,115.4297 L40,115.4297 L40,98.2969 " fill="#EEEEEE" style="stroke:#000000;stroke-width:1.5;"/><rect fill="none" height="204.9297" style="stroke:#000000;stroke-width:1.5;" width="473.5" x="40" y="98.2969"/><text fill="#000000" font-family="sans-serif" font-size="13" font-weight="bold" lengthAdjust="spacing" textLength="107" x="55" y="111.3638">Authentication</text><polygon fill="#181818" points="283.5,135.5625,293.5,139.5625,283.5,143.5625,287.5,139.5625" style="stroke:#181818;stroke-width:1.0;"/><line style="stroke:#181818;stroke-width:1.0;" x1="82.5" x2="289.5" y1="139.5625" y2="139.5625"/><text fill="#000000" font-family="sans-serif" font-size="13" font-weight="bold" lengthAdjust="spacing" textLength="23" x="89.5" y="134.4966">1.1</text><text fill="#000000" font-family="monospace" font-size="13" lengthAdjust="spacing" textLength="80" x="116.5" y="134.4966">GET&#160;/login</text><text fill="#000000" font-family="sans-serif" font-size="13" lengthAdjust="spacing" textLength="78" x="200.5" y="134.4966">(Basic Auth)</text><path d="M300,120.4297 L300,145.4297 L498,145.4297 L498,130.4297 L488,120.4297 L300,120.4297 " fill="#FEFFDD" style="stroke:#181818;stroke-width:0.5;"/><path d="M488,120.4297 L488,130.4297 L498,130.4297 L488,120.4297 " fill="#FEFFDD" style="stroke:#181818;stroke-width:0.5;"/><text fill="#000000" font-family="sans-serif" font-size="13" lengthAdjust="spacing" textLength="177" x="306" y="137.4966">Shared profile as username</text><path d="M50,157.5625 L114,157.5625 L114,164.6953 L104,174.6953 L50,174.6953 L50,157.5625 " fill="#EEEEEE" style="stroke:#000000;stroke-width:1.5;"/><rect fill="none" height="138.6641" style="stroke:#000000;stroke-width:1.5;" width="444" x="50" y="157.5625"/><text fill="#000000" font-family="sans-serif" font-size="13" font-weight="bold" lengthAdjust="spacing" textLength="19" x="65" y="170.6294">alt</text><text fill="#000000" font-family="sans-serif" font-size="11" font-weight="bold" lengthAdjust="spacing" textLength="118" x="129" y="169.7729">[Valid credentials]</text><line style="stroke:#181818;stroke-width:1.0;" x1="295.5" x2="337.5" y1="199.8945" y2="199.8945"/><line style="stroke:#181818;stroke-width:1.0;" x1="337.5" x2="337.5" y1="199.8945" y2="212.8945"/><line style="stroke:#181818;stroke-width:1.0;" x1="296.5" x2="337.5" y1="212.8945" y2="212.8945"/><polygon fill="#181818" points="306.5,208.8945,296.5,212.8945,306.5,216.8945,302.5,212.8945" style="stroke:#181818;stroke-width:1.0;"/><text fill="#000000" font-family="sans-serif" font-size="13" font-weight="bold" lengthAdjust="spacing" textLength="23" x="302.5" y="194.8286">1.2</text><text fill="#000000" font-family="sans-serif" font-size="13" lengthAdjust="spacing" textLength="153" x="329.5" y="194.8286">Generate unique Biscuit</text><path d="M123,179.6953 L123,219.6953 L290,219.6953 L290,189.6953 L280,179.6953 L123,179.6953 " fill="#FEFFDD" style="stroke:#181818;stroke-width:0.5;"/><path d="M280,179.6953 L280,189.6953 L290,189.6953 L280,179.6953 " fill="#FEFFDD" style="stroke:#181818;stroke-width:0.5;"/><text fill="#000000" font-family="sans-serif" font-size="13" lengthAdjust="spacing" textLength="80" x="129" y="196.7622">With TTL and</text><text fill="#000000" font-family="sans-serif" font-size="13" lengthAdjust="spacing" textLength="146" x="129" y="211.895">revocation mechanism</text><polygon fill="#008000" points="93.5,242.0938,83.5,246.0938,93.5,250.0938,89.5,246.0938" style="stroke:#008000;stroke-width:1.0;"/><line style="stroke:#008000;stroke-width:1.0;stroke-dasharray:2.0,2.0;" x1="87.5" x2="294.5" y1="246.0938" y2="246.0938"/><text fill="#000000" font-family="sans-serif" font-size="13" font-weight="bold" lengthAdjust="spacing" textLength="23" x="99.5" y="241.0278">1.3</text><text fill="#000000" font-family="sans-serif" font-size="13" lengthAdjust="spacing" textLength="42" x="126.5" y="241.0278">Biscuit</text><line style="stroke:#181818;stroke-width:1.0;" x1="82.5" x2="124.5" y1="275.2266" y2="275.2266"/><line style="stroke:#181818;stroke-width:1.0;" x1="124.5" x2="124.5" y1="275.2266" y2="288.2266"/><line style="stroke:#181818;stroke-width:1.0;" x1="83.5" x2="124.5" y1="288.2266" y2="288.2266"/><polygon fill="#181818" points="93.5,284.2266,83.5,288.2266,93.5,292.2266,89.5,288.2266" style="stroke:#181818;stroke-width:1.0;"/><text fill="#000000" font-family="sans-serif" font-size="13" font-weight="bold" lengthAdjust="spacing" textLength="23" x="89.5" y="270.1606">1.4</text><text fill="#000000" font-family="sans-serif" font-size="13" lengthAdjust="spacing" textLength="153" x="116.5" y="270.1606">Store Biscuit in a cookie</text><text fill="#000000" font-family="sans-serif" font-size="11" lengthAdjust="spacing" textLength="74" x="308" y="334.437">Time passes</text><polygon fill="#181818" points="283.5,368.1641,293.5,372.1641,283.5,376.1641,287.5,372.1641" style="stroke:#181818;stroke-width:1.0;"/><line style="stroke:#181818;stroke-width:1.0;" x1="82.5" x2="289.5" y1="372.1641" y2="372.1641"/><text fill="#000000" font-family="sans-serif" font-size="13" font-weight="bold" lengthAdjust="spacing" textLength="23" x="89.5" y="367.0981">2.1</text><text fill="#000000" font-family="monospace" font-size="13" lengthAdjust="spacing" textLength="120" x="116.5" y="367.0981">GET&#160;/page1.html</text><polygon fill="#181818" points="595.5,397.2969,605.5,401.2969,595.5,405.2969,599.5,401.2969" style="stroke:#181818;stroke-width:1.0;"/><line style="stroke:#181818;stroke-width:1.0;" x1="295.5" x2="601.5" y1="401.2969" y2="401.2969"/><text fill="#000000" font-family="sans-serif" font-size="13" font-weight="bold" lengthAdjust="spacing" textLength="23" x="302.5" y="396.231">2.2</text><text fill="#000000" font-family="monospace" font-size="13" lengthAdjust="spacing" textLength="120" x="329.5" y="396.231">GET&#160;/page1.html</text><text fill="#000000" font-family="sans-serif" font-size="13" lengthAdjust="spacing" textLength="39" x="453.5" y="396.231">object</text><path d="M10,416.2969 L74,416.2969 L74,423.4297 L64,433.4297 L10,433.4297 L10,416.2969 " fill="#EEEEEE" style="stroke:#000000;stroke-width:1.5;"/><rect fill="none" height="584.3906" style="stroke:#000000;stroke-width:1.5;" width="665.5" x="10" y="416.2969"/><text fill="#000000" font-family="sans-serif" font-size="13" font-weight="bold" lengthAdjust="spacing" textLength="19" x="25" y="429.3638">alt</text><text fill="#000000" font-family="sans-serif" font-size="11" font-weight="bold" lengthAdjust="spacing" textLength="188" x="89" y="428.5073">[Public object does not exist]</text><polygon fill="#FF0000" points="306.5,450.5625,296.5,454.5625,306.5,458.5625,302.5,454.5625" style="stroke:#FF0000;stroke-width:1.0;"/><line style="stroke:#FF0000;stroke-width:1.0;stroke-dasharray:2.0,2.0;" x1="300.5" x2="606.5" y1="454.5625" y2="454.5625"/><text fill="#000000" font-family="sans-serif" font-size="13" font-weight="bold" lengthAdjust="spacing" textLength="23" x="312.5" y="449.4966">2.3</text><text fill="#000000" font-family="monospace" font-size="13" lengthAdjust="spacing" textLength="104" x="339.5" y="449.4966">404&#160;Not&#160;Found</text><polygon fill="#181818" points="595.5,479.6953,605.5,483.6953,595.5,487.6953,599.5,483.6953" style="stroke:#181818;stroke-width:1.0;"/><line style="stroke:#181818;stroke-width:1.0;" x1="295.5" x2="601.5" y1="483.6953" y2="483.6953"/><text fill="#000000" font-family="sans-serif" font-size="13" font-weight="bold" lengthAdjust="spacing" textLength="23" x="302.5" y="478.6294">2.4</text><text fill="#000000" font-family="sans-serif" font-size="13" lengthAdjust="spacing" textLength="22" x="329.5" y="478.6294">List</text><text fill="#000000" font-family="monospace" font-size="13" lengthAdjust="spacing" textLength="104" x="355.5" y="478.6294">/page1.html@*</text><text fill="#000000" font-family="sans-serif" font-size="13" lengthAdjust="spacing" textLength="46" x="463.5" y="478.6294">objects</text><path d="M20,498.6953 L84,498.6953 L84,505.8281 L74,515.8281 L20,515.8281 L20,498.6953 " fill="#EEEEEE" style="stroke:#000000;stroke-width:1.5;"/><rect fill="none" height="494.9922" style="stroke:#000000;stroke-width:1.5;" width="645.5" x="20" y="498.6953"/><text fill="#000000" font-family="sans-serif" font-size="13" font-weight="bold" lengthAdjust="spacing" textLength="19" x="35" y="511.7622">alt</text><text fill="#000000" font-family="sans-serif" font-size="11" font-weight="bold" lengthAdjust="spacing" textLength="151" x="99" y="510.9058">[Private object(s) exist]</text><polygon fill="#008000" points="306.5,548.0938,296.5,552.0938,306.5,556.0938,302.5,552.0938" style="stroke:#008000;stroke-width:1.0;"/><line style="stroke:#008000;stroke-width:1.0;stroke-dasharray:2.0,2.0;" x1="300.5" x2="606.5" y1="552.0938" y2="552.0938"/><text fill="#000000" font-family="sans-serif" font-size="13" font-weight="bold" lengthAdjust="spacing" textLength="23" x="312.5" y="539.4614">2.5</text><text fill="#000000" font-family="monospace" font-size="13" lengthAdjust="spacing" textLength="208" x="339.5" y="531.895">["/page1.html@&lt;profile1&gt;",</text><text fill="#000000" font-family="monospace" font-size="13" lengthAdjust="spacing" textLength="200" x="339.5" y="547.0278">"/page1.html@&lt;profile2&gt;"]</text><line style="stroke:#181818;stroke-width:1.0;" x1="295.5" x2="337.5" y1="581.2266" y2="581.2266"/><line style="stroke:#181818;stroke-width:1.0;" x1="337.5" x2="337.5" y1="581.2266" y2="594.2266"/><line style="stroke:#181818;stroke-width:1.0;" x1="296.5" x2="337.5" y1="594.2266" y2="594.2266"/><polygon fill="#181818" points="306.5,590.2266,296.5,594.2266,306.5,598.2266,302.5,594.2266" style="stroke:#181818;stroke-width:1.0;"/><text fill="#000000" font-family="sans-serif" font-size="13" font-weight="bold" lengthAdjust="spacing" textLength="23" x="302.5" y="576.1606">2.6</text><text fill="#000000" font-family="sans-serif" font-size="13" lengthAdjust="spacing" textLength="119" x="329.5" y="576.1606">Read Bearer token</text><line style="stroke:#181818;stroke-width:1.0;" x1="295.5" x2="337.5" y1="623.3594" y2="623.3594"/><line style="stroke:#181818;stroke-width:1.0;" x1="337.5" x2="337.5" y1="623.3594" y2="636.3594"/><line style="stroke:#181818;stroke-width:1.0;" x1="296.5" x2="337.5" y1="636.3594" y2="636.3594"/><polygon fill="#181818" points="306.5,632.3594,296.5,636.3594,306.5,640.3594,302.5,636.3594" style="stroke:#181818;stroke-width:1.0;"/><text fill="#000000" font-family="sans-serif" font-size="13" font-weight="bold" lengthAdjust="spacing" textLength="23" x="302.5" y="618.2935">2.7</text><text fill="#000000" font-family="sans-serif" font-size="13" lengthAdjust="spacing" textLength="98" x="329.5" y="618.2935">Validate Biscuit</text><path d="M106,610.7266 L106,635.7266 L290,635.7266 L290,620.7266 L280,610.7266 L106,610.7266 " fill="#FEFFDD" style="stroke:#181818;stroke-width:0.5;"/><path d="M280,610.7266 L280,620.7266 L290,620.7266 L280,610.7266 " fill="#FEFFDD" style="stroke:#181818;stroke-width:0.5;"/><text fill="#000000" font-family="sans-serif" font-size="13" lengthAdjust="spacing" textLength="163" x="112" y="627.7935">Format, TTL, revocation&#8230;</text><path d="M30,651.3594 L94,651.3594 L94,658.4922 L84,668.4922 L30,668.4922 L30,651.3594 " fill="#EEEEEE" style="stroke:#000000;stroke-width:1.5;"/><rect fill="none" height="335.3281" style="stroke:#000000;stroke-width:1.5;" width="625.5" x="30" y="651.3594"/><text fill="#000000" font-family="sans-serif" font-size="13" font-weight="bold" lengthAdjust="spacing" textLength="19" x="45" y="664.4263">alt</text><text fill="#000000" font-family="sans-serif" font-size="11" font-weight="bold" lengthAdjust="spacing" textLength="104" x="109" y="663.5698">[Biscuit is valid]</text><line style="stroke:#181818;stroke-width:1.0;" x1="295.5" x2="337.5" y1="689.625" y2="689.625"/><line style="stroke:#181818;stroke-width:1.0;" x1="337.5" x2="337.5" y1="689.625" y2="702.625"/><line style="stroke:#181818;stroke-width:1.0;" x1="296.5" x2="337.5" y1="702.625" y2="702.625"/><polygon fill="#181818" points="306.5,698.625,296.5,702.625,306.5,706.625,302.5,702.625" style="stroke:#181818;stroke-width:1.0;"/><text fill="#000000" font-family="sans-serif" font-size="13" font-weight="bold" lengthAdjust="spacing" textLength="23" x="302.5" y="684.5591">2.8</text><text fill="#000000" font-family="sans-serif" font-size="13" lengthAdjust="spacing" textLength="271" x="329.5" y="684.5591">Validate Biscuit against authorized profiles</text><path d="M40,717.625 L104,717.625 L104,724.7578 L94,734.7578 L40,734.7578 L40,717.625 " fill="#EEEEEE" style="stroke:#000000;stroke-width:1.5;"/><rect fill="none" height="262.0625" style="stroke:#000000;stroke-width:1.5;" width="605.5" x="40" y="717.625"/><text fill="#000000" font-family="sans-serif" font-size="13" font-weight="bold" lengthAdjust="spacing" textLength="19" x="55" y="730.6919">alt</text><text fill="#000000" font-family="sans-serif" font-size="11" font-weight="bold" lengthAdjust="spacing" textLength="242" x="119" y="729.8354">[Authorized profile present in Biscuit]</text><line style="stroke:#181818;stroke-width:1.0;" x1="295.5" x2="337.5" y1="755.8906" y2="755.8906"/><line style="stroke:#181818;stroke-width:1.0;" x1="337.5" x2="337.5" y1="755.8906" y2="768.8906"/><line style="stroke:#181818;stroke-width:1.0;" x1="296.5" x2="337.5" y1="768.8906" y2="768.8906"/><polygon fill="#181818" points="306.5,764.8906,296.5,768.8906,306.5,772.8906,302.5,768.8906" style="stroke:#181818;stroke-width:1.0;"/><text fill="#000000" font-family="sans-serif" font-size="13" font-weight="bold" lengthAdjust="spacing" textLength="23" x="302.5" y="750.8247">2.9</text><text fill="#000000" font-family="sans-serif" font-size="13" lengthAdjust="spacing" textLength="155" x="329.5" y="750.8247">Read profile from Biscuit</text><line style="stroke:#181818;stroke-width:1.0;" x1="295.5" x2="337.5" y1="798.0234" y2="798.0234"/><line style="stroke:#181818;stroke-width:1.0;" x1="337.5" x2="337.5" y1="798.0234" y2="811.0234"/><line style="stroke:#181818;stroke-width:1.0;" x1="296.5" x2="337.5" y1="811.0234" y2="811.0234"/><polygon fill="#181818" points="306.5,807.0234,296.5,811.0234,306.5,815.0234,302.5,811.0234" style="stroke:#181818;stroke-width:1.0;"/><text fill="#000000" font-family="sans-serif" font-size="13" font-weight="bold" lengthAdjust="spacing" textLength="32" x="302.5" y="792.9575">2.10</text><text fill="#000000" font-family="sans-serif" font-size="13" lengthAdjust="spacing" textLength="248" x="338.5" y="792.9575">Read decryption key from environment</text><path d="M113,785.3906 L113,810.3906 L290,810.3906 L290,795.3906 L280,785.3906 L113,785.3906 " fill="#FEFFDD" style="stroke:#181818;stroke-width:0.5;"/><path d="M280,785.3906 L280,795.3906 L290,795.3906 L280,785.3906 " fill="#FEFFDD" style="stroke:#181818;stroke-width:0.5;"/><text fill="#000000" font-family="sans-serif" font-size="13" lengthAdjust="spacing" textLength="156" x="119" y="802.4575">Key associated to profile</text><path d="M50,826.0234 L114,826.0234 L114,833.1563 L104,843.1563 L50,843.1563 L50,826.0234 " fill="#EEEEEE" style="stroke:#000000;stroke-width:1.5;"/><rect fill="none" height="146.6641" style="stroke:#000000;stroke-width:1.5;" width="585.5" x="50" y="826.0234"/><text fill="#000000" font-family="sans-serif" font-size="13" font-weight="bold" lengthAdjust="spacing" textLength="19" x="65" y="839.0903">alt</text><text fill="#000000" font-family="sans-serif" font-size="11" font-weight="bold" lengthAdjust="spacing" textLength="175" x="129" y="838.2339">[Key found in environment]</text><polygon fill="#181818" points="595.5,860.2891,605.5,864.2891,595.5,868.2891,599.5,864.2891" style="stroke:#181818;stroke-width:1.0;"/><line style="stroke:#181818;stroke-width:1.0;" x1="295.5" x2="601.5" y1="864.2891" y2="864.2891"/><text fill="#000000" font-family="sans-serif" font-size="13" font-weight="bold" lengthAdjust="spacing" textLength="32" x="302.5" y="859.2231">2.11</text><text fill="#000000" font-family="monospace" font-size="13" lengthAdjust="spacing" textLength="200" x="338.5" y="859.2231">GET&#160;/page1.html@&lt;profile&gt;</text><polygon fill="#008000" points="306.5,889.4219,296.5,893.4219,306.5,897.4219,302.5,893.4219" style="stroke:#008000;stroke-width:1.0;"/><line style="stroke:#008000;stroke-width:1.0;stroke-dasharray:2.0,2.0;" x1="300.5" x2="606.5" y1="893.4219" y2="893.4219"/><text fill="#000000" font-family="sans-serif" font-size="13" font-weight="bold" lengthAdjust="spacing" textLength="32" x="312.5" y="888.356">2.12</text><text fill="#000000" font-family="monospace" font-size="13" lengthAdjust="spacing" textLength="168" x="348.5" y="888.356">/page1.html@&lt;profile&gt;</text><line style="stroke:#181818;stroke-width:1.0;" x1="295.5" x2="337.5" y1="922.5547" y2="922.5547"/><line style="stroke:#181818;stroke-width:1.0;" x1="337.5" x2="337.5" y1="922.5547" y2="935.5547"/><line style="stroke:#181818;stroke-width:1.0;" x1="296.5" x2="337.5" y1="935.5547" y2="935.5547"/><polygon fill="#181818" points="306.5,931.5547,296.5,935.5547,306.5,939.5547,302.5,935.5547" style="stroke:#181818;stroke-width:1.0;"/><text fill="#000000" font-family="sans-serif" font-size="13" font-weight="bold" lengthAdjust="spacing" textLength="32" x="302.5" y="917.4888">2.13</text><text fill="#000000" font-family="sans-serif" font-size="13" lengthAdjust="spacing" textLength="50" x="338.5" y="917.4888">Decrypt</text><text fill="#000000" font-family="monospace" font-size="13" lengthAdjust="spacing" textLength="168" x="392.5" y="917.4888">/page1.html@&lt;profile&gt;</text><path d="M96,909.9219 L96,934.9219 L290,934.9219 L290,919.9219 L280,909.9219 L96,909.9219 " fill="#FEFFDD" style="stroke:#181818;stroke-width:0.5;"/><path d="M280,909.9219 L280,919.9219 L290,919.9219 L280,909.9219 " fill="#FEFFDD" style="stroke:#181818;stroke-width:0.5;"/><text fill="#000000" font-family="sans-serif" font-size="13" lengthAdjust="spacing" textLength="173" x="102" y="926.9888">We suppose this never fails</text><polygon fill="#008000" points="93.5,960.6875,83.5,964.6875,93.5,968.6875,89.5,964.6875" style="stroke:#008000;stroke-width:1.0;"/><line style="stroke:#008000;stroke-width:1.0;stroke-dasharray:2.0,2.0;" x1="87.5" x2="294.5" y1="964.6875" y2="964.6875"/><text fill="#000000" font-family="sans-serif" font-size="13" font-weight="bold" lengthAdjust="spacing" textLength="32" x="99.5" y="959.6216">2.14</text><text fill="#000000" font-family="monospace" font-size="13" lengthAdjust="spacing" textLength="88" x="135.5" y="959.6216">/page1.html</text><!--SRC=[XLHDSzCm43rRls8HpBHbsfGqFMKWGmEqXnQcGp9mQ7lOs9jOn9QC9AUK4x-67yOlOMKdZjiaa9duGtgxR_Vja_V0pPKkq68EbbnXjAEFv1pEQ4YPkJ-prjo3joM9FS3I6rtc4x92OEoDXNUP8kq5ntiLgmAr1pd4U7v4Ef603iABID3Z11t1g2V4inS59uSt88_3GxUJ-ZoJdB193jrELuYPDMK1PwLFcK75w9NH8ge9uMXGPUw3b1SVnd2ScPdIKiB-49sAgwW34MdZ2QoQfRuFenGj9L1OCrKPXT9AHrPZJYB2pCCNp5G2CMC27MPEH56WM5DTa2QBdB7Kwdj9C5GkBfLdNCMJqPHflYgVmdXy1QYJMsrfOUhA8QSuHQrStkIzUJwpHFgE2Ugk-gsKwpvNUoFMko45fG4XDcQkk7uMMuI_w7GwC5OvGO7EaGD-VoJiIH1skuJLLAGKgvv7lISxO2RVAFQSZzMwBYSPwrmlGMAOYqK0-g4S8w9HBxJ7MjwrM4vVdS8d1fsRaiqXHTIckk90nbHSRrysR4xKqxcsQX6ahrVttK53jUHgf5ontInplLvEl3kGXrBUiacUR9mCv1rNip7kpuG938bTOy6REUaDH6MPKDLM9vmRcwC_36OuXBKH_lpw7RX2Kyqi7In2gh3-7mh06IhDKl5GKsFLpxMbNHKUyfvjxF6TN1WwssPLR41lQtaLChKcRtMs5PjGR1-AojzpUgX3I2-KDJeFtuKGrfBaaZ5iJ1ChRYbXLLTaTJ6XzW2P1eE4KjkfAaIqmvtDC0V1L-6tmnKxq8zRUrztjHlUFky4hYmAmnytd_8WDItOBrDKrGSa-iTPNsQlhHTLPrYix_MjkeRBNm00]--></g></svg>