<?xml version="1.0" encoding="us-ascii" standalone="no"?><svg xmlns="http://www.w3.org/2000/svg" xmlns:xlink="http://www.w3.org/1999/xlink" contentStyleType="text/css" height="903px" preserveAspectRatio="none" style="width:539px;height:903px;background:#FFFFFF;" version="1.1" viewBox="0 0 539 903" width="539px" zoomAndPan="magnify"><defs/><g><ellipse cx="161" cy="20" fill="#222222" rx="10" ry="10" style="stroke:#222222;stroke-width:1.0;"/><rect fill="#F1F1F1" height="33.9688" rx="12.5" ry="12.5" style="stroke:#181818;stroke-width:0.5;" width="133" x="94.5" y="50"/><text fill="#000000" font-family="sans-serif" font-size="12" lengthAdjust="spacing" textLength="113" x="104.5" y="71.1387">Create directories</text><rect fill="#F1F1F1" height="33.9688" rx="12.5" ry="12.5" style="stroke:#181818;stroke-width:0.5;" width="110" x="106" y="103.9688"/><text fill="#000000" font-family="sans-serif" font-size="12" lengthAdjust="spacing" textLength="90" x="116" y="125.1074">Generate blog</text><rect fill="#F1F1F1" height="33.9688" rx="12.5" ry="12.5" style="stroke:#181818;stroke-width:0.5;" width="184" x="69" y="157.9375"/><text fill="#000000" font-family="sans-serif" font-size="12" lengthAdjust="spacing" textLength="164" x="79" y="179.0762">Generate data files (JSON)</text><rect fill="#F1F1F1" height="33.9688" rx="12.5" ry="12.5" style="stroke:#181818;stroke-width:0.5;" width="222" x="50" y="211.9063"/><text fill="#000000" font-family="sans-serif" font-size="12" lengthAdjust="spacing" textLength="202" x="60" y="233.0449">Remove files leaking information</text><rect fill="#F1F1F1" height="33.9688" rx="12.5" ry="12.5" style="stroke:#181818;stroke-width:0.5;" width="107" x="107.5" y="309.875"/><text fill="#000000" font-family="sans-serif" font-size="12" lengthAdjust="spacing" textLength="87" x="117.5" y="331.0137">Read data file</text><rect fill="#F1F1F1" height="33.9688" rx="12.5" ry="12.5" style="stroke:#181818;stroke-width:0.5;" width="116" x="103" y="363.8438"/><text fill="#000000" font-family="sans-serif" font-size="12" lengthAdjust="spacing" textLength="96" x="113" y="384.9824">Delete data file</text><rect fill="#F1F1F1" height="33.9688" rx="12.5" ry="12.5" style="stroke:#181818;stroke-width:0.5;" width="189" x="66.5" y="549.8125"/><text fill="#000000" font-family="sans-serif" font-size="12" lengthAdjust="spacing" textLength="169" x="76.5" y="570.9512">Encrypt HTML file for profile</text><polygon fill="#F1F1F1" points="66,505.8125,256,505.8125,268,517.8125,256,529.8125,66,529.8125,54,517.8125,66,505.8125" style="stroke:#181818;stroke-width:0.5;"/><text fill="#000000" font-family="sans-serif" font-size="11" lengthAdjust="spacing" textLength="190" x="66" y="521.6206">For each profile with read access</text><rect fill="#F1F1F1" height="33.9688" rx="12.5" ry="12.5" style="stroke:#181818;stroke-width:0.5;" width="119" x="101.5" y="627.7813"/><text fill="#000000" font-family="sans-serif" font-size="12" lengthAdjust="spacing" textLength="99" x="111.5" y="648.9199">Delete HTML file</text><polygon fill="#F1F1F1" points="77.5,461.8125,244.5,461.8125,256.5,473.8125,244.5,485.8125,77.5,485.8125,65.5,473.8125,77.5,461.8125" style="stroke:#181818;stroke-width:0.5;"/><text fill="#000000" font-family="sans-serif" font-size="11" lengthAdjust="spacing" textLength="167" x="77.5" y="477.6206">HTML file named like data file</text><polygon fill="#F1F1F1" points="161,681.75,173,693.75,161,705.75,149,693.75,161,681.75" style="stroke:#181818;stroke-width:0.5;"/><polygon fill="#F1F1F1" points="94.5,417.8125,227.5,417.8125,239.5,429.8125,227.5,441.8125,94.5,441.8125,82.5,429.8125,94.5,417.8125" style="stroke:#181818;stroke-width:0.5;"/><text fill="#000000" font-family="sans-serif" font-size="11" lengthAdjust="spacing" textLength="133" x="94.5" y="433.6206">Access profiles defined</text><polygon fill="#F1F1F1" points="161,725.75,173,737.75,161,749.75,149,737.75,161,725.75" style="stroke:#181818;stroke-width:0.5;"/><polygon fill="#F1F1F1" points="111.5,265.875,210.5,265.875,222.5,277.875,210.5,289.875,111.5,289.875,99.5,277.875,111.5,265.875" style="stroke:#181818;stroke-width:0.5;"/><text fill="#000000" font-family="sans-serif" font-size="11" lengthAdjust="spacing" textLength="99" x="111.5" y="281.6831">For each data file</text><path d="M270.5,828.168 L270.5,853.3008 L527.5,853.3008 L527.5,838.168 L517.5,828.168 L270.5,828.168 " fill="#FEFFDD" style="stroke:#181818;stroke-width:0.5;"/><path d="M517.5,828.168 L517.5,838.168 L527.5,838.168 L517.5,828.168 " fill="#FEFFDD" style="stroke:#181818;stroke-width:0.5;"/><text fill="#000000" font-family="sans-serif" font-size="13" lengthAdjust="spacing" textLength="236" x="276.5" y="845.2349">["html", "json", "xml", "css", "js", "txt"]</text><rect fill="#F1F1F1" height="33.9688" rx="12.5" ry="12.5" style="stroke:#181818;stroke-width:0.5;" width="47" x="137.5" y="835.75"/><text fill="#000000" font-family="sans-serif" font-size="12" lengthAdjust="spacing" textLength="27" x="147.5" y="856.8887">Test</text><polygon fill="#F1F1F1" points="95.5,791.75,226.5,791.75,238.5,803.75,226.5,815.75,95.5,815.75,83.5,803.75,95.5,791.75" style="stroke:#181818;stroke-width:0.5;"/><text fill="#000000" font-family="sans-serif" font-size="11" lengthAdjust="spacing" textLength="131" x="95.5" y="807.5581">For each remaining file</text><ellipse cx="73.5" cy="845.75" fill="none" rx="10" ry="10" style="stroke:#222222;stroke-width:1.5;"/><line style="stroke:#222222;stroke-width:2.5;" x1="67.3128" x2="79.6872" y1="839.5628" y2="851.9372"/><line style="stroke:#222222;stroke-width:2.5;" x1="79.6872" x2="67.3128" y1="839.5628" y2="851.9372"/><line style="stroke:#181818;stroke-width:1.0;" x1="161" x2="161" y1="30" y2="50"/><polygon fill="#181818" points="157,40,161,50,165,40,161,44" style="stroke:#181818;stroke-width:1.0;"/><line style="stroke:#181818;stroke-width:1.0;" x1="161" x2="161" y1="83.9688" y2="103.9688"/><polygon fill="#181818" points="157,93.9688,161,103.9688,165,93.9688,161,97.9688" style="stroke:#181818;stroke-width:1.0;"/><line style="stroke:#181818;stroke-width:1.0;" x1="161" x2="161" y1="137.9375" y2="157.9375"/><polygon fill="#181818" points="157,147.9375,161,157.9375,165,147.9375,161,151.9375" style="stroke:#181818;stroke-width:1.0;"/><line style="stroke:#181818;stroke-width:1.0;" x1="161" x2="161" y1="191.9063" y2="211.9063"/><polygon fill="#181818" points="157,201.9063,161,211.9063,165,201.9063,161,205.9063" style="stroke:#181818;stroke-width:1.0;"/><line style="stroke:#181818;stroke-width:1.0;" x1="161" x2="161" y1="343.8438" y2="363.8438"/><polygon fill="#181818" points="157,353.8438,161,363.8438,165,353.8438,161,357.8438" style="stroke:#181818;stroke-width:1.0;"/><line style="stroke:#181818;stroke-width:1.0;" x1="161" x2="161" y1="529.8125" y2="549.8125"/><polygon fill="#181818" points="157,539.8125,161,549.8125,165,539.8125,161,543.8125" style="stroke:#181818;stroke-width:1.0;"/><line style="stroke:#181818;stroke-width:1.0;" x1="161" x2="161" y1="583.7813" y2="595.7813"/><line style="stroke:#181818;stroke-width:1.0;" x1="161" x2="280" y1="595.7813" y2="595.7813"/><polygon fill="#181818" points="276,564.7969,280,554.7969,284,564.7969,280,560.7969" style="stroke:#181818;stroke-width:1.0;"/><line style="stroke:#181818;stroke-width:1.0;" x1="280" x2="280" y1="517.8125" y2="595.7813"/><line style="stroke:#181818;stroke-width:1.0;" x1="280" x2="268" y1="517.8125" y2="517.8125"/><polygon fill="#181818" points="278,513.8125,268,517.8125,278,521.8125,274,517.8125" style="stroke:#181818;stroke-width:1.0;"/><line style="stroke:#181818;stroke-width:1.0;" x1="54" x2="42" y1="517.8125" y2="517.8125"/><polygon fill="#181818" points="38,550.7969,42,560.7969,46,550.7969,42,554.7969" style="stroke:#181818;stroke-width:1.0;"/><line style="stroke:#181818;stroke-width:1.0;" x1="42" x2="42" y1="517.8125" y2="607.7813"/><line style="stroke:#181818;stroke-width:1.0;" x1="42" x2="161" y1="607.7813" y2="607.7813"/><line style="stroke:#181818;stroke-width:1.0;" x1="161" x2="161" y1="607.7813" y2="627.7813"/><polygon fill="#181818" points="157,617.7813,161,627.7813,165,617.7813,161,621.7813" style="stroke:#181818;stroke-width:1.0;"/><line style="stroke:#181818;stroke-width:1.0;" x1="161" x2="161" y1="485.8125" y2="505.8125"/><polygon fill="#181818" points="157,495.8125,161,505.8125,165,495.8125,161,499.8125" style="stroke:#181818;stroke-width:1.0;"/><line style="stroke:#181818;stroke-width:1.0;" x1="256.5" x2="290" y1="473.8125" y2="473.8125"/><polygon fill="#181818" points="286,579.2813,290,589.2813,294,579.2813,290,583.2813" style="stroke:#181818;stroke-width:1.0;"/><line style="stroke:#181818;stroke-width:1.0;" x1="290" x2="290" y1="473.8125" y2="693.75"/><line style="stroke:#181818;stroke-width:1.0;" x1="290" x2="173" y1="693.75" y2="693.75"/><polygon fill="#181818" points="183,689.75,173,693.75,183,697.75,179,693.75" style="stroke:#181818;stroke-width:1.0;"/><line style="stroke:#181818;stroke-width:1.0;" x1="161" x2="161" y1="661.75" y2="681.75"/><polygon fill="#181818" points="157,671.75,161,681.75,165,671.75,161,675.75" style="stroke:#181818;stroke-width:1.0;"/><line style="stroke:#181818;stroke-width:1.0;" x1="161" x2="161" y1="441.8125" y2="461.8125"/><polygon fill="#181818" points="157,451.8125,161,461.8125,165,451.8125,161,455.8125" style="stroke:#181818;stroke-width:1.0;"/><line style="stroke:#181818;stroke-width:1.0;" x1="239.5" x2="312" y1="429.8125" y2="429.8125"/><polygon fill="#181818" points="308,579.2813,312,589.2813,316,579.2813,312,583.2813" style="stroke:#181818;stroke-width:1.0;"/><line style="stroke:#181818;stroke-width:1.0;" x1="312" x2="312" y1="429.8125" y2="737.75"/><line style="stroke:#181818;stroke-width:1.0;" x1="312" x2="173" y1="737.75" y2="737.75"/><polygon fill="#181818" points="183,733.75,173,737.75,183,741.75,179,737.75" style="stroke:#181818;stroke-width:1.0;"/><line style="stroke:#181818;stroke-width:1.0;" x1="161" x2="161" y1="705.75" y2="725.75"/><polygon fill="#181818" points="157,715.75,161,725.75,165,715.75,161,719.75" style="stroke:#181818;stroke-width:1.0;"/><line style="stroke:#181818;stroke-width:1.0;" x1="161" x2="161" y1="397.8125" y2="417.8125"/><polygon fill="#181818" points="157,407.8125,161,417.8125,165,407.8125,161,411.8125" style="stroke:#181818;stroke-width:1.0;"/><line style="stroke:#181818;stroke-width:1.0;" x1="161" x2="161" y1="289.875" y2="309.875"/><polygon fill="#181818" points="157,299.875,161,309.875,165,299.875,161,303.875" style="stroke:#181818;stroke-width:1.0;"/><line style="stroke:#181818;stroke-width:1.0;" x1="161" x2="161" y1="749.75" y2="759.75"/><line style="stroke:#181818;stroke-width:1.0;" x1="161" x2="336" y1="759.75" y2="759.75"/><polygon fill="#181818" points="332,522.3125,336,512.3125,340,522.3125,336,518.3125" style="stroke:#181818;stroke-width:1.0;"/><line style="stroke:#181818;stroke-width:1.0;" x1="336" x2="336" y1="277.875" y2="759.75"/><line style="stroke:#181818;stroke-width:1.0;" x1="336" x2="222.5" y1="277.875" y2="277.875"/><polygon fill="#181818" points="232.5,273.875,222.5,277.875,232.5,281.875,228.5,277.875" style="stroke:#181818;stroke-width:1.0;"/><line style="stroke:#181818;stroke-width:1.0;" x1="99.5" x2="24" y1="277.875" y2="277.875"/><polygon fill="#181818" points="20,508.3125,24,518.3125,28,508.3125,24,512.3125" style="stroke:#181818;stroke-width:1.0;"/><line style="stroke:#181818;stroke-width:1.0;" x1="24" x2="24" y1="277.875" y2="771.75"/><line style="stroke:#181818;stroke-width:1.0;" x1="24" x2="161" y1="771.75" y2="771.75"/><line style="stroke:#181818;stroke-width:1.0;" x1="161" x2="161" y1="771.75" y2="791.75"/><polygon fill="#181818" points="157,781.75,161,791.75,165,781.75,161,785.75" style="stroke:#181818;stroke-width:1.0;"/><line style="stroke:#181818;stroke-width:1.0;" x1="161" x2="161" y1="245.875" y2="265.875"/><polygon fill="#181818" points="157,255.875,161,265.875,165,255.875,161,259.875" style="stroke:#181818;stroke-width:1.0;"/><line style="stroke:#181818;stroke-width:1.0;" x1="161" x2="161" y1="815.75" y2="835.75"/><polygon fill="#181818" points="157,825.75,161,835.75,165,825.75,161,829.75" style="stroke:#181818;stroke-width:1.0;"/><line style="stroke:#181818;stroke-width:1.0;" x1="161" x2="161" y1="869.7188" y2="879.7188"/><line style="stroke:#181818;stroke-width:1.0;" x1="161" x2="250.5" y1="879.7188" y2="879.7188"/><polygon fill="#181818" points="246.5,850.7344,250.5,840.7344,254.5,850.7344,250.5,846.7344" style="stroke:#181818;stroke-width:1.0;"/><line style="stroke:#181818;stroke-width:1.0;" x1="250.5" x2="250.5" y1="803.75" y2="879.7188"/><line style="stroke:#181818;stroke-width:1.0;" x1="250.5" x2="238.5" y1="803.75" y2="803.75"/><polygon fill="#181818" points="248.5,799.75,238.5,803.75,248.5,807.75,244.5,803.75" style="stroke:#181818;stroke-width:1.0;"/><line style="stroke:#181818;stroke-width:1.0;" x1="83.5" x2="73.5" y1="803.75" y2="803.75"/><line style="stroke:#181818;stroke-width:1.0;" x1="73.5" x2="73.5" y1="803.75" y2="835.75"/><polygon fill="#181818" points="69.5,825.75,73.5,835.75,77.5,825.75,73.5,829.75" style="stroke:#181818;stroke-width:1.0;"/><!--SRC=[PL3BJiGm3BptAwoUjX9Vi3qXda8y9DWRuX0Ijp6R9Yl7OfU_9sdQRGMNE1wFPsn7KIpLzefH2O8XHYs12MDRRU_G8sVuquL-dHib2Zfo667pyFRotAJYAmxX6oVKeTgJxu5y5tXGGi6tLNMqgGYRsy20Ijj5fga0ae0o2zHcw1eThkqoI1riBhN66E70eTWPxCYZQK0i-iGfhFlTq-FO1buDQC3HVgMr8WFydMnIXYE91Sw3gT6ocVXfjXkl-USWiBYaLUV6TkAXDwFqbCuBdNiABx6eg-PuxlbtByP1aSztdO_cGr9ZwgsCGk-rbS7L5r1_nU1pF9LKnrZG_Cf9wezYDmhaI-ymIhjOfyyl]--></g></svg>